<svg width="35" height="145" viewBox="0 0 35 145" fill="none" xmlns="http://www.w3.org/2000/svg">
<path d="M2.9955 -2.79792e-06C4.88739 -2.63253e-06 6.51652 0.0521913 7.88289 0.156583C9.24925 0.156583 10.7207 0.313165 12.2973 0.626341C14.0841 0.939515 15.503 1.35708 16.5541 1.87904C17.5 2.401 18.6562 3.28833 20.0225 4.54103C21.1787 5.68934 22.0721 7.04644 22.7027 8.61232C23.3333 10.1782 23.9114 12.3182 24.4369 15.0324C24.9625 17.851 25.2252 20.7739 25.2252 23.8013L25.2252 59.8164C25.2252 64.0965 25.4354 67.0194 25.8559 68.5853C26.1712 70.1512 26.9595 71.1951 28.2207 71.7171C29.482 72.239 31.7417 72.5 35 72.5L35 80.6425C31.7417 80.6425 29.482 80.9035 28.2207 81.4255C26.9595 81.9474 26.1712 82.9914 25.8559 84.5572C25.4354 86.1231 25.2252 89.0461 25.2252 93.3261L25.2252 121.199C25.2252 127.149 24.4369 132.16 22.8604 136.231C21.8093 138.841 19.7072 141.138 16.554 143.121C15.7132 143.643 14.4519 144.06 12.7703 144.374C10.9835 144.687 9.35435 144.896 7.88287 145L2.99549 145L-1.14441e-05 145L-1.0787e-05 137.484L1.57657 137.484C4.3093 137.484 6.62162 136.544 8.51351 134.665C10.3003 132.891 11.1937 130.437 11.1937 127.306L11.1937 98.8067C11.1937 92.3344 12.0871 87.428 13.8739 84.0875C15.6607 80.8513 18.9189 78.4503 23.6487 76.8844L23.6487 76.2581C18.9189 74.6922 15.6607 72.2912 13.8739 69.0551C12.0871 65.8189 11.1937 60.9125 11.1937 54.3358L11.1937 17.6944C11.1937 14.5626 10.3003 12.1094 8.51352 10.3348C6.62163 8.45573 4.30931 7.51619 1.57658 7.51619L5.75125e-07 7.51619L1.23221e-06 -3.0598e-06L2.9955 -2.79792e-06Z" fill="#011C72"/>
</svg>
