<svg width="181" height="77" viewBox="0 0 181 77" fill="none" xmlns="http://www.w3.org/2000/svg">
<g clip-path="url(#clip0_402_2)">
<path d="M21 137.803V137.803C41.3431 71.3824 135.388 71.4654 156 137.803V137.803" stroke="#0E65D9" stroke-linecap="round"/>
<g filter="url(#filter1_d_402_2)">
<path d="M21 59V59C43.0238 -5.0854 133.691 -4.98681 156 59V59" stroke="#0E65D9" stroke-linecap="round"/>
</g>
<path d="M40.04 27.76V26.9589L39.2581 26.7841C36.9152 26.2604 34.4684 26 31.92 26C28.1977 26 25.2294 26.6284 23.1669 28.0336C21.0357 29.4857 20 31.6779 20 34.44V46.76C20 49.4126 21.0552 51.5054 23.1882 52.8805C25.2458 54.207 28.2046 54.8 31.92 54.8C34.5719 54.8 37.0723 54.5403 39.4181 54.0159L40.2 53.8412V53.04V50.08V48.7992L38.9575 49.1099C36.4589 49.7345 34.195 50.04 32.16 50.04C29.7477 50.04 28.1051 49.671 27.0958 49.0633C26.1678 48.5045 25.72 47.7162 25.72 46.56V34.4C25.72 33.5562 25.8875 32.9307 26.1606 32.4693C26.4264 32.0201 26.8305 31.6611 27.4269 31.4022C28.0664 31.1426 28.729 30.9655 29.4166 30.8706L29.4333 30.8683L29.4499 30.8655C30.1524 30.7443 30.9998 30.68 32 30.68C34.035 30.68 36.2989 30.9855 38.7975 31.6101L40.04 31.9208V30.64V27.76Z" fill="#F2F2F2" stroke="#0D0D0D" stroke-width="2"/>
<path d="M46.2 46.72C46.2 49.3709 47.2504 51.4638 49.3767 52.8396C51.428 54.1669 54.3774 54.76 58.08 54.76C61.4597 54.76 64.2934 54.1984 66.5147 53.0001C67.6747 52.3743 68.5816 51.5238 69.1914 50.4406C69.7986 49.3619 70.08 48.1087 70.08 46.72V34.4C70.08 31.6459 69.0333 29.4634 66.8881 28.0203C64.8134 26.6245 61.8273 26 58.08 26C54.3705 26 51.4116 26.6285 49.3555 28.0345C47.2311 29.4873 46.2 31.6794 46.2 34.44V46.72ZM64.32 46.68C64.32 47.854 63.8799 48.6414 62.9995 49.1923C62.0409 49.7921 60.4747 50.16 58.16 50.16C55.8173 50.16 54.2292 49.7918 53.2561 49.1896C52.3623 48.6365 51.92 47.8489 51.92 46.68V34.32C51.92 32.8189 52.4199 31.9609 53.2622 31.4647C54.2986 30.8708 55.8825 30.52 58.12 30.52C60.4404 30.52 62.0059 30.9125 62.9653 31.5521C63.853 32.1439 64.32 33.0113 64.32 34.32V46.68Z" fill="#F2F2F2" stroke="#0D0D0D" stroke-width="2"/>
<path d="M137.96 46.72C137.96 49.3709 139.01 51.4638 141.136 52.8396C143.188 54.1669 146.137 54.76 149.84 54.76C153.219 54.76 156.053 54.1984 158.275 53.0001C159.434 52.3743 160.341 51.5238 160.951 50.4406C161.558 49.3619 161.84 48.1087 161.84 46.72V34.4C161.84 31.6459 160.793 29.4634 158.648 28.0203C156.573 26.6245 153.587 26 149.84 26C146.13 26 143.171 26.6285 141.115 28.0345C138.991 29.4873 137.96 31.6794 137.96 34.44V46.72ZM156.08 46.68C156.08 47.854 155.64 48.6414 154.759 49.1923C153.801 49.7921 152.234 50.16 149.92 50.16C147.577 50.16 145.989 49.7918 145.016 49.1896C144.122 48.6365 143.68 47.8489 143.68 46.68V34.32C143.68 32.8189 144.18 31.9609 145.022 31.4647C146.058 30.8708 147.642 30.52 149.88 30.52C152.2 30.52 153.766 30.9125 154.725 31.5521C155.613 32.1439 156.08 33.0113 156.08 34.32V46.68Z" fill="#F2F2F2" stroke="#0D0D0D" stroke-width="2"/>
<path d="M76.5998 53.12V53.9905L77.462 54.1105C80.5579 54.5412 83.2463 54.76 85.5198 54.76C87.8668 54.76 89.8348 54.5295 91.3853 54.0322C92.978 53.5213 94.2292 52.6354 95.0431 51.3376C95.8756 50.0525 96.2398 48.3878 96.2398 46.44V44.56C96.2398 43.0218 96.02 41.6936 95.5025 40.6492C94.9833 39.5188 94.075 38.7077 92.8723 38.2002C91.7046 37.6964 90.162 37.48 88.3198 37.48H85.1998C83.6515 37.48 82.7608 37.2797 82.3348 37.0345C82.0369 36.8281 81.8398 36.5076 81.8398 35.88V32.92C81.8398 32.0122 82.1365 31.5399 82.5982 31.2552C82.83 31.1174 83.2839 30.9622 84.0546 30.8495C84.8095 30.739 85.787 30.68 86.9998 30.68C88.5241 30.68 90.7854 30.8977 93.8123 31.3491L94.9598 31.5202V30.36V27.44V26.542L94.0671 26.4458C91.3292 26.1505 89.0633 26 87.2798 26C84.6532 26 82.5074 26.215 80.8851 26.6785L80.8851 26.6785L80.8805 26.6798C79.2851 27.1439 78.005 27.8927 77.1911 29.0118L77.1852 29.02L77.1794 29.0282C76.4172 30.1219 76.0798 31.4864 76.0798 33.04V35.12C76.0798 37.4029 76.6506 39.2915 77.9911 40.565C79.3387 41.8452 81.4613 42.36 84.0798 42.36H87.1198C88.6901 42.36 89.5333 42.595 89.9018 42.856C90.1757 43.05 90.4398 43.4561 90.4398 44.4V47.76C90.4398 48.2368 90.3497 48.5681 90.223 48.7992C90.1031 49.0179 89.9229 49.1982 89.643 49.3403C88.9427 49.666 87.6914 49.88 85.7598 49.88C83.5036 49.88 80.8569 49.559 77.8105 48.9024L76.5998 48.6415V49.88V53.12Z" fill="#F2F2F2" stroke="#0D0D0D" stroke-width="2"/>
<path d="M103.24 26H102.24V27V52.96V53.96H103.24H106.72H107.72V52.96V35.7851L114.589 53.3247L114.837 53.96H115.52H119H119.689L119.934 53.3158L126.56 35.9121V52.96V53.96H127.56H130.96H131.96V52.96V27V26H130.96H125.36H124.66L124.42 26.6578L117.403 45.9292L109.973 26.6406L109.726 26H109.04H103.24Z" fill="#F2F2F2" stroke="#0D0D0D" stroke-width="2"/>
<path d="M26.092 67.708H27.379L28.913 72.882H28.991L30.473 67.708H31.786L33.32 72.882H33.398L34.88 67.708H36.076L34.009 74H32.618L31.097 68.917L29.602 74H28.211L26.092 67.708ZM39.8979 74.13C37.9739 74.13 37.0119 73.4887 37.0119 72.206V69.723C37.0119 68.9603 37.2286 68.4143 37.6619 68.085C38.1039 67.747 38.8146 67.578 39.7939 67.578C40.7213 67.578 41.3886 67.7383 41.7959 68.059C42.2119 68.3797 42.4199 68.9343 42.4199 69.723V71.114H38.1949V72.063C38.1949 72.4963 38.3466 72.8083 38.6499 72.999C38.9533 73.1897 39.4213 73.285 40.0539 73.285C40.6519 73.285 41.3583 73.181 42.1729 72.973V73.87C41.3756 74.0433 40.6173 74.13 39.8979 74.13ZM41.2499 70.347V69.359C41.2499 68.9777 41.1329 68.7177 40.8989 68.579C40.6736 68.4317 40.2836 68.358 39.7289 68.358C39.1916 68.358 38.8016 68.4317 38.5589 68.579C38.3163 68.7177 38.1949 68.9777 38.1949 69.359V70.347H41.2499ZM47.011 74.13C46.543 74.13 46.166 74.104 45.88 74.052C45.6026 74.0087 45.3253 73.922 45.048 73.792C44.4846 73.5233 44.203 72.908 44.203 71.946V64.9H45.373V66.785V67.526C45.3643 67.7513 45.36 68.0027 45.36 68.28C45.4033 68.0807 45.5853 67.9117 45.906 67.773C46.2353 67.643 46.712 67.578 47.336 67.578C49.0693 67.578 49.936 68.1717 49.936 69.359V71.946C49.936 72.3187 49.8796 72.6437 49.767 72.921C49.663 73.1983 49.5243 73.415 49.351 73.571C49.195 73.7183 48.9783 73.8353 48.701 73.922C48.4323 74.0087 48.1636 74.065 47.895 74.091C47.6523 74.117 47.3576 74.13 47.011 74.13ZM47.037 73.363C47.4876 73.363 47.83 73.3327 48.064 73.272C48.3066 73.2027 48.48 73.0813 48.584 72.908C48.688 72.7347 48.74 72.4703 48.74 72.115V69.645C48.74 69.2897 48.688 69.0253 48.584 68.852C48.48 68.67 48.3066 68.553 48.064 68.501C47.83 68.4403 47.4833 68.41 47.024 68.41C46.5993 68.41 46.27 68.4447 46.036 68.514C45.802 68.5833 45.633 68.709 45.529 68.891C45.425 69.0643 45.373 69.3157 45.373 69.645V72.115C45.373 72.4703 45.4206 72.7347 45.516 72.908C45.62 73.0813 45.789 73.2027 46.023 73.272C46.257 73.3327 46.595 73.363 47.037 73.363ZM53.6553 74.13C52.988 74.13 52.2686 74.078 51.4973 73.974V73.077C52.5113 73.2417 53.2393 73.324 53.6813 73.324C54.236 73.324 54.6346 73.272 54.8773 73.168C55.12 73.0553 55.2413 72.8517 55.2413 72.557V71.92C55.2413 71.6513 55.1503 71.4607 54.9683 71.348C54.7863 71.2353 54.4916 71.179 54.0843 71.179H53.3693C52.7193 71.179 52.221 71.0447 51.8743 70.776C51.5363 70.5073 51.3673 70.1303 51.3673 69.645V69.06C51.3673 68.072 52.3033 67.578 54.1753 67.578C54.314 67.578 54.951 67.6127 56.0863 67.682V68.527C55.315 68.4057 54.6606 68.345 54.1233 68.345C53.508 68.345 53.0876 68.4057 52.8623 68.527C52.637 68.6483 52.5243 68.852 52.5243 69.138V69.671C52.5243 70.0957 52.91 70.308 53.6813 70.308H54.4093C55.7353 70.308 56.3983 70.802 56.3983 71.79V72.336C56.3983 72.986 56.173 73.4497 55.7223 73.727C55.2716 73.9957 54.5826 74.13 53.6553 74.13ZM58.0155 65.433H59.1855V66.655H58.0155V65.433ZM58.0155 67.708H59.1855V74H58.0155V67.708ZM63.8537 74.13C63.3164 74.13 62.896 74.0737 62.5927 73.961C62.2894 73.8397 62.0684 73.6403 61.9297 73.363C61.7997 73.077 61.7347 72.6783 61.7347 72.167V68.475H60.3307V67.708H61.7347V65.758H62.9177V67.708H65.1667V68.475H62.9177V72.232C62.9177 72.544 62.9524 72.778 63.0217 72.934C63.0997 73.09 63.2297 73.2027 63.4117 73.272C63.6024 73.3327 63.8754 73.363 64.2307 73.363C64.3434 73.363 64.6554 73.3283 65.1667 73.259V74.026C64.7247 74.0953 64.287 74.13 63.8537 74.13ZM69.0972 74.13C67.1732 74.13 66.2112 73.4887 66.2112 72.206V69.723C66.2112 68.9603 66.4278 68.4143 66.8612 68.085C67.3032 67.747 68.0138 67.578 68.9932 67.578C69.9205 67.578 70.5878 67.7383 70.9952 68.059C71.4112 68.3797 71.6192 68.9343 71.6192 69.723V71.114H67.3942V72.063C67.3942 72.4963 67.5458 72.8083 67.8492 72.999C68.1525 73.1897 68.6205 73.285 69.2532 73.285C69.8512 73.285 70.5575 73.181 71.3722 72.973V73.87C70.5748 74.0433 69.8165 74.13 69.0972 74.13ZM70.4492 70.347V69.359C70.4492 68.9777 70.3322 68.7177 70.0982 68.579C69.8728 68.4317 69.4828 68.358 68.9282 68.358C68.3908 68.358 68.0008 68.4317 67.7582 68.579C67.5155 68.7177 67.3942 68.9777 67.3942 69.359V70.347H70.4492ZM78.6473 74.13C78.0233 74.13 77.5336 74.0693 77.1783 73.948C76.8229 73.818 76.5629 73.61 76.3983 73.324C76.2423 73.038 76.1643 72.6393 76.1643 72.128V69.359C76.1643 68.7263 76.3593 68.2713 76.7493 67.994C77.1479 67.7167 77.8023 67.578 78.7123 67.578C79.2583 67.578 79.7263 67.6473 80.1163 67.786C80.5149 67.9247 80.7186 68.124 80.7273 68.384H80.7533L80.7273 66.785V64.9H81.8973V74H80.7533V73.259C80.7533 73.493 80.5669 73.6923 80.1943 73.857C79.8216 74.039 79.3059 74.13 78.6473 74.13ZM78.8943 73.324C79.5443 73.324 80.0123 73.2503 80.2983 73.103C80.5843 72.9557 80.7273 72.7043 80.7273 72.349V69.242C80.7273 68.6787 80.1509 68.397 78.9983 68.397C78.3049 68.397 77.8543 68.449 77.6463 68.553C77.4296 68.657 77.3213 68.8867 77.3213 69.242V72.349C77.3213 72.7043 77.4383 72.9557 77.6723 73.103C77.9149 73.2503 78.3223 73.324 78.8943 73.324ZM86.477 74.13C84.553 74.13 83.591 73.4887 83.591 72.206V69.723C83.591 68.9603 83.8077 68.4143 84.241 68.085C84.683 67.747 85.3937 67.578 86.373 67.578C87.3004 67.578 87.9677 67.7383 88.375 68.059C88.791 68.3797 88.999 68.9343 88.999 69.723V71.114H84.774V72.063C84.774 72.4963 84.9257 72.8083 85.229 72.999C85.5324 73.1897 86.0004 73.285 86.633 73.285C87.231 73.285 87.9374 73.181 88.752 72.973V73.87C87.9547 74.0433 87.1964 74.13 86.477 74.13ZM87.829 70.347V69.359C87.829 68.9777 87.712 68.7177 87.478 68.579C87.2527 68.4317 86.8627 68.358 86.308 68.358C85.7707 68.358 85.3807 68.4317 85.138 68.579C84.8954 68.7177 84.774 68.9777 84.774 69.359V70.347H87.829ZM89.8461 67.708H91.0811L92.8231 72.986H92.8881L94.5781 67.708H95.7091L93.5121 74H92.1081L89.8461 67.708ZM99.4516 74.13C97.5276 74.13 96.5656 73.4887 96.5656 72.206V69.723C96.5656 68.9603 96.7823 68.4143 97.2156 68.085C97.6576 67.747 98.3683 67.578 99.3476 67.578C100.275 67.578 100.942 67.7383 101.35 68.059C101.766 68.3797 101.974 68.9343 101.974 69.723V71.114H97.7486V72.063C97.7486 72.4963 97.9003 72.8083 98.2036 72.999C98.507 73.1897 98.975 73.285 99.6076 73.285C100.206 73.285 100.912 73.181 101.727 72.973V73.87C100.929 74.0433 100.171 74.13 99.4516 74.13ZM100.804 70.347V69.359C100.804 68.9777 100.687 68.7177 100.453 68.579C100.227 68.4317 99.8373 68.358 99.2826 68.358C98.7453 68.358 98.3553 68.4317 98.1126 68.579C97.87 68.7177 97.7486 68.9777 97.7486 69.359V70.347H100.804ZM103.757 64.9H104.927V74H103.757V64.9ZM109.621 74.13C109.066 74.13 108.65 74.1083 108.373 74.065C108.096 74.0303 107.818 73.948 107.541 73.818C107.255 73.688 107.047 73.48 106.917 73.194C106.787 72.8993 106.722 72.505 106.722 72.011V69.827C106.722 69.437 106.77 69.0947 106.865 68.8C106.96 68.5053 107.086 68.2757 107.242 68.111C107.372 67.9637 107.567 67.851 107.827 67.773C108.096 67.6863 108.369 67.63 108.646 67.604C108.958 67.5867 109.283 67.578 109.621 67.578C110.072 67.578 110.41 67.591 110.635 67.617C110.869 67.6343 111.116 67.6777 111.376 67.747C111.645 67.825 111.853 67.942 112 68.098C112.147 68.254 112.273 68.4793 112.377 68.774C112.472 69.0773 112.52 69.4283 112.52 69.827V72.011C112.52 72.7477 112.351 73.285 112.013 73.623C111.874 73.7617 111.675 73.87 111.415 73.948C111.155 74.026 110.886 74.078 110.609 74.104C110.28 74.1213 109.95 74.13 109.621 74.13ZM109.621 73.363C109.985 73.363 110.249 73.3543 110.414 73.337C110.579 73.3197 110.739 73.272 110.895 73.194C111.051 73.1247 111.159 73.012 111.22 72.856C111.289 72.6913 111.324 72.466 111.324 72.18V69.632C111.324 69.242 111.276 68.9603 111.181 68.787C111.086 68.605 110.921 68.488 110.687 68.436C110.462 68.3753 110.106 68.345 109.621 68.345C109.136 68.345 108.776 68.3753 108.542 68.436C108.317 68.488 108.156 68.605 108.061 68.787C107.966 68.9603 107.918 69.242 107.918 69.632V72.18C107.918 72.466 107.948 72.6913 108.009 72.856C108.078 73.012 108.191 73.1247 108.347 73.194C108.503 73.272 108.663 73.3197 108.828 73.337C108.993 73.3543 109.257 73.363 109.621 73.363ZM114.345 67.708H115.502V68.384H115.515C115.61 67.8467 116.325 67.578 117.66 67.578C118.457 67.578 119.059 67.747 119.467 68.085C119.874 68.4143 120.078 68.839 120.078 69.359V71.946C120.078 72.3187 120.021 72.6437 119.909 72.921C119.805 73.1983 119.666 73.415 119.493 73.571C119.337 73.7183 119.12 73.8353 118.843 73.922C118.574 74.0087 118.305 74.065 118.037 74.091C117.794 74.117 117.499 74.13 117.153 74.13C116.771 74.13 116.42 74.0867 116.1 74C115.788 73.9047 115.593 73.7703 115.515 73.597V76.704H114.345V67.708ZM117.179 73.337C117.629 73.337 117.972 73.3067 118.206 73.246C118.448 73.1767 118.622 73.0553 118.726 72.882C118.83 72.7087 118.882 72.4443 118.882 72.089V69.775C118.882 69.385 118.83 69.0947 118.726 68.904C118.622 68.7133 118.448 68.5877 118.206 68.527C117.972 68.4577 117.625 68.423 117.166 68.423C116.706 68.423 116.364 68.4577 116.139 68.527C115.913 68.5877 115.753 68.7133 115.658 68.904C115.562 69.086 115.515 69.3763 115.515 69.775V72.089C115.515 72.4443 115.562 72.7087 115.658 72.882C115.762 73.0553 115.931 73.1767 116.165 73.246C116.399 73.3067 116.737 73.337 117.179 73.337ZM121.873 67.708H123.043V68.475C123.164 67.877 123.871 67.578 125.162 67.578C126.211 67.578 126.865 67.864 127.125 68.436C127.203 68.1587 127.437 67.9463 127.827 67.799C128.226 67.6517 128.711 67.578 129.283 67.578C130.063 67.578 130.613 67.7253 130.934 68.02C131.255 68.306 131.415 68.761 131.415 69.385V74H130.245V69.463C130.245 69.2983 130.232 69.164 130.206 69.06C130.18 68.956 130.128 68.852 130.05 68.748C129.877 68.5313 129.491 68.423 128.893 68.423C128.434 68.423 128.091 68.4533 127.866 68.514C127.641 68.5747 127.485 68.6787 127.398 68.826C127.32 68.9733 127.281 69.1857 127.281 69.463V74H126.111V69.463C126.111 69.2983 126.098 69.164 126.072 69.06C126.046 68.956 125.994 68.852 125.916 68.748C125.743 68.5313 125.361 68.423 124.772 68.423C124.295 68.423 123.936 68.4533 123.693 68.514C123.45 68.5747 123.281 68.6787 123.186 68.826C123.091 68.9647 123.043 69.177 123.043 69.463V74H121.873V67.708ZM136.09 74.13C134.166 74.13 133.204 73.4887 133.204 72.206V69.723C133.204 68.9603 133.421 68.4143 133.854 68.085C134.296 67.747 135.007 67.578 135.986 67.578C136.914 67.578 137.581 67.7383 137.988 68.059C138.404 68.3797 138.612 68.9343 138.612 69.723V71.114H134.387V72.063C134.387 72.4963 134.539 72.8083 134.842 72.999C135.146 73.1897 135.614 73.285 136.246 73.285C136.844 73.285 137.551 73.181 138.365 72.973V73.87C137.568 74.0433 136.81 74.13 136.09 74.13ZM137.442 70.347V69.359C137.442 68.9777 137.325 68.7177 137.091 68.579C136.866 68.4317 136.476 68.358 135.921 68.358C135.384 68.358 134.994 68.4317 134.751 68.579C134.509 68.7177 134.387 68.9777 134.387 69.359V70.347H137.442ZM140.395 67.708H141.565V68.475C141.687 67.877 142.376 67.578 143.632 67.578C144.438 67.578 145.002 67.7253 145.322 68.02C145.652 68.306 145.816 68.761 145.816 69.385V74H144.646V69.45C144.646 69.2853 144.633 69.151 144.607 69.047C144.581 68.943 144.529 68.839 144.451 68.735C144.278 68.5183 143.892 68.41 143.294 68.41C142.835 68.41 142.48 68.4447 142.228 68.514C141.986 68.5747 141.812 68.6787 141.708 68.826C141.613 68.9733 141.565 69.1813 141.565 69.45V74H140.395V67.708ZM150.486 74.13C149.949 74.13 149.529 74.0737 149.225 73.961C148.922 73.8397 148.701 73.6403 148.562 73.363C148.432 73.077 148.367 72.6783 148.367 72.167V68.475H146.963V67.708H148.367V65.758H149.55V67.708H151.799V68.475H149.55V72.232C149.55 72.544 149.585 72.778 149.654 72.934C149.732 73.09 149.862 73.2027 150.044 73.272C150.235 73.3327 150.508 73.363 150.863 73.363C150.976 73.363 151.288 73.3283 151.799 73.259V74.026C151.357 74.0953 150.92 74.13 150.486 74.13Z" fill="#F2F2F2" fill-opacity="0.7"/>
<g filter="url(#filter2_d_402_2)">
<path d="M21 59H156" stroke="#0E65D9" stroke-linecap="round"/>
</g>
</g>
<defs>
<filter id="filter1_d_402_2" x="14.5271" y="2.4729" width="147.945" height="60.6917" filterUnits="userSpaceOnUse" color-interpolation-filters="sRGB">
<feFlood flood-opacity="0" result="BackgroundImageFix"/>
<feColorMatrix in="SourceAlpha" type="matrix" values="0 0 0 0 0 0 0 0 0 0 0 0 0 0 0 0 0 0 127 0" result="hardAlpha"/>
<feOffset dy="-2"/>
<feGaussianBlur stdDeviation="3"/>
<feComposite in2="hardAlpha" operator="out"/>
<feColorMatrix type="matrix" values="0 0 0 0 0.0100001 0 0 0 0 0.434286 0 0 0 0 1 0 0 0 1 0"/>
<feBlend mode="normal" in2="BackgroundImageFix" result="effect1_dropShadow_402_2"/>
<feBlend mode="normal" in="SourceGraphic" in2="effect1_dropShadow_402_2" result="shape"/>
</filter>
<filter id="filter2_d_402_2" x="14.5" y="52.5" width="148" height="13" filterUnits="userSpaceOnUse" color-interpolation-filters="sRGB">
<feFlood flood-opacity="0" result="BackgroundImageFix"/>
<feColorMatrix in="SourceAlpha" type="matrix" values="0 0 0 0 0 0 0 0 0 0 0 0 0 0 0 0 0 0 127 0" result="hardAlpha"/>
<feOffset/>
<feGaussianBlur stdDeviation="3"/>
<feComposite in2="hardAlpha" operator="out"/>
<feColorMatrix type="matrix" values="0 0 0 0 0.0100001 0 0 0 0 0.434286 0 0 0 0 1 0 0 0 1 0"/>
<feBlend mode="normal" in2="BackgroundImageFix" result="effect1_dropShadow_402_2"/>
<feBlend mode="normal" in="SourceGraphic" in2="effect1_dropShadow_402_2" result="shape"/>
</filter>
<clipPath id="clip0_402_2">
<rect width="181" height="77" fill="white"/>
</clipPath>
</defs>
</svg>
