<svg width="893" height="576" viewBox="0 0 893 576" fill="none" xmlns="http://www.w3.org/2000/svg">
<path fill-rule="evenodd" clip-rule="evenodd" d="M311.675 238.592L311.659 238.59C303.586 237.64 294.757 235.867 285.186 233.299C274.312 230.459 265.102 226.735 257.685 222.035L257.637 222.004L257.589 221.973C250.023 216.926 243.802 210.039 238.89 201.451C233.564 192.549 231 182.143 231 170.423V72.3305C231 48.3754 240.317 29.8895 259.095 17.654C277.512 5.6542 304.517 0 339.401 0C357.457 0 381.384 2.57435 411.077 7.64137L415.126 8.33236V58.8981L409.116 57.4466C382.767 51.0825 359.775 47.9454 340.089 47.9454C331.67 47.9454 325.201 48.1741 320.613 48.6107C316.492 49.0241 312.077 50.0645 307.356 51.7824L307.309 51.7996L307.261 51.8158C302.716 53.3642 299.631 55.7263 297.626 58.7563C295.594 61.829 294.394 66.012 294.394 71.6422V166.637C294.394 170.917 295.363 174.431 297.143 177.352C298.93 180.284 301.699 182.888 305.705 185.079C313.865 189.542 326.729 192.055 344.905 192.055C360.166 192.055 381.979 188.828 410.534 182.199L416.501 180.814V231.528L412.614 232.328C387.775 237.439 363.369 240 339.401 240C329.17 240 319.923 239.535 311.675 238.592ZM320.139 43.7633C324.955 43.3044 331.605 43.0749 340.089 43.0749C359.028 43.0749 380.796 45.9046 405.391 51.564C407.001 51.9346 408.624 52.3173 410.258 52.7121V12.4426C380.677 7.39454 357.058 4.87052 339.401 4.87052C270.379 4.87052 235.867 27.3572 235.867 72.3305V170.423C235.867 181.437 238.275 190.959 243.091 198.99C247.677 207.021 253.41 213.331 260.289 217.92C267.168 222.28 275.882 225.837 286.43 228.59C295.832 231.114 304.431 232.835 312.228 233.753C320.254 234.671 329.312 235.129 339.401 235.129C363.02 235.129 387.098 232.605 411.634 227.557V186.944C409.99 187.325 408.368 187.696 406.767 188.056C380.44 193.969 359.82 196.925 344.905 196.925C307.986 196.925 289.526 186.829 289.526 166.637V71.6422C289.526 59.0221 294.915 50.8764 305.693 47.2051C310.737 45.3695 315.553 44.2222 320.139 43.7633ZM521.893 237.535L521.877 237.533C511.238 235.877 500.182 233.048 488.714 229.067C475.753 224.66 465.383 217.471 457.849 207.419L457.832 207.396L457.815 207.373C450.241 197.016 446.556 184.613 446.556 170.423V72.6747C446.556 60.9257 449.132 50.2337 454.387 40.7191L454.41 40.6766L454.435 40.6346C459.832 31.3067 466.77 23.8353 475.265 18.3347L475.285 18.3219L475.305 18.3092C482.657 13.6499 491.581 9.81466 501.984 6.73909C512.329 3.68065 522.062 1.76964 531.169 1.04892C539.342 0.348435 547.961 0 557.021 0C567.669 0 577.016 0.461306 585.037 1.40187C593.149 2.12309 602.114 3.78613 611.913 6.35422L611.978 6.37128L612.043 6.39013C623.353 9.6908 632.877 13.7591 640.492 18.6754C648.32 23.7285 654.787 30.7456 659.936 39.575C665.505 48.9561 668.174 60.0592 668.174 72.6747V170.423C668.174 183.724 664.589 195.431 657.261 205.307C650.238 215.081 640.514 222.376 628.31 227.261C607.015 235.784 583.228 240 557.021 240C544.431 240 532.718 239.184 521.893 237.535ZM653.332 202.432C659.982 193.483 663.307 182.814 663.307 170.423V72.6747C663.307 60.743 660.785 50.5323 655.74 42.0424C650.924 33.782 644.962 27.3572 637.853 22.7681C630.745 18.179 621.687 14.2782 610.68 11.0658C601.049 8.54183 592.335 6.93563 584.539 6.24726C576.742 5.32943 567.57 4.87052 557.021 4.87052C548.078 4.87052 539.594 5.21471 531.568 5.90309C522.854 6.59144 513.452 8.42708 503.363 11.41C493.273 14.3929 484.789 18.0642 477.909 22.4239C470.113 27.4719 463.692 34.3556 458.647 43.0749C453.832 51.7942 451.424 61.6609 451.424 72.6747V170.423C451.424 183.731 454.864 195.089 461.743 204.497C468.622 213.675 478.139 220.33 490.292 224.46C501.528 228.361 512.306 231.114 522.625 232.72C533.173 234.326 544.639 235.129 557.021 235.129C582.704 235.129 605.865 230.999 626.503 222.739C637.968 218.15 646.911 211.381 653.332 202.432ZM601.296 181.938L601.31 181.92C603.537 179.006 604.781 175.277 604.781 170.423V72.3305C604.781 67.7051 603.854 64.0741 602.236 61.2308C600.635 58.4154 598.197 56.089 594.698 54.2913L594.652 54.2677L594.607 54.2432C587.212 50.2432 575.025 47.9454 557.365 47.9454C539.688 47.9454 527.46 50.1309 520.033 53.9471C516.554 55.7349 514.117 58.0764 512.51 60.9449C510.884 63.8471 509.95 67.5728 509.95 72.3305V170.423C509.95 175.245 511.177 178.957 513.377 181.862C515.577 184.545 518.955 186.709 523.937 188.105L523.963 188.112L523.988 188.119C529.245 189.654 534.244 190.741 538.988 191.395C544.055 191.831 550.287 192.055 557.709 192.055C565.145 192.055 571.261 191.83 576.092 191.395C581.07 190.74 586.182 189.651 591.431 188.119C596.18 186.733 599.306 184.593 601.283 181.956L601.296 181.938ZM576.628 196.237C571.583 196.696 565.277 196.925 557.709 196.925C550.142 196.925 543.721 196.696 538.447 196.237C533.402 195.548 528.128 194.401 522.625 192.795C516.892 191.189 512.535 188.55 509.554 184.879C506.573 180.978 505.083 176.159 505.083 170.423V72.3305C505.083 61.5461 509.325 53.9741 517.809 49.6144C526.294 45.2547 539.479 43.0749 557.365 43.0749C575.252 43.0749 588.437 45.3695 596.922 49.9586C605.406 54.3183 609.648 61.7756 609.648 72.3305V170.423C609.648 176.159 608.158 180.978 605.177 184.879C602.425 188.55 598.297 191.189 592.794 192.795C587.29 194.401 581.902 195.548 576.628 196.237ZM705.06 233.207V182.304L710.664 183.162C749.687 189.134 775.935 192.055 789.728 192.055C804.373 192.055 814.618 190.14 821.035 186.831C824.172 185.213 826.252 183.334 827.562 181.309C828.856 179.306 829.576 176.886 829.576 173.865V159.409C829.576 153.072 827.735 148.924 824.662 146.174L824.614 146.13L824.566 146.085C821.88 143.546 815.99 141.563 805.206 141.563H779.065C754.015 141.563 734.327 136.607 720.831 125.879C707.12 114.981 700.589 98.7723 700.589 78.1817V61.6609C700.589 40.4922 709.597 24.4808 727.489 14.3944C744.897 4.58059 771.742 0 807.27 0C825.851 0 849.312 1.50902 877.607 4.50137L881.963 4.96204V54.7558L876.519 54.1065C841.87 49.9736 818.293 47.9454 805.55 47.9454C796.606 47.9454 789.252 48.3147 783.441 49.0278C777.551 49.7507 773.588 50.789 771.206 51.9355C768.497 53.2442 766.755 54.7824 765.673 56.4249C764.604 58.047 763.982 60.0684 763.982 62.6934V78.5259C763.982 82.6999 765.577 85.4748 768.993 87.5016C772.808 89.7654 779.158 91.2087 788.696 91.2087H815.525C841.372 91.2087 861.22 95.9462 873.99 106.425C886.902 117.019 892.969 132.951 892.969 153.214V168.014C892.969 195.898 882.87 215.932 861.763 226.39C852.113 231.452 841.439 234.919 829.78 236.83C818.399 238.96 804.8 240 789.04 240C767.427 240 740.829 237.909 709.294 233.763L705.06 233.207ZM828.94 232.032C840.176 230.196 850.38 226.869 859.553 222.05C878.586 212.643 888.102 194.631 888.102 168.014V153.214C888.102 133.939 882.369 119.598 870.904 110.191C859.438 100.783 840.979 96.0792 815.525 96.0792H788.696C768.975 96.0792 759.115 90.2281 759.115 78.5259V62.6934C759.115 55.8097 762.44 50.7617 769.09 47.5493C775.281 44.5664 787.435 43.0749 805.55 43.0749C817.999 43.0749 840.225 44.9483 872.228 48.6949C873.826 48.882 875.448 49.0738 877.095 49.2702V9.34491C848.89 6.36199 825.615 4.87052 807.27 4.87052C771.956 4.87052 746.159 9.45965 729.878 18.6379C713.597 27.8161 705.456 42.1571 705.456 61.6609V78.1817C705.456 117.189 729.992 136.693 779.065 136.693H805.206C816.213 136.693 823.78 138.643 827.908 142.544C832.265 146.445 834.443 152.066 834.443 159.409V173.865C834.443 189.238 819.538 196.925 789.728 196.925C776.11 196.925 751.133 194.189 714.795 188.715C713.195 188.474 711.572 188.228 709.928 187.976V228.934C741.343 233.064 767.714 235.129 789.04 235.129C804.633 235.129 817.933 234.097 828.94 232.032Z" fill="#011C72"/>
<path fill-rule="evenodd" clip-rule="evenodd" d="M115 339.442H199.731L251.286 488.989L302.197 339.442H382.469V572.558H324.212V428.777L275.099 572.558H225.157L173.945 427.068V572.558H115V339.442ZM169.075 402.479H170.452L228.605 567.688H271.617L328.049 402.479H329.081V567.688H377.599V344.312H305.683L251.315 504.014L196.259 344.312H119.869V567.688H169.075V402.479ZM501.662 573.535L501.646 573.533C491.003 571.877 479.942 569.047 468.469 565.067C455.504 560.66 445.13 553.471 437.593 543.419L437.576 543.396L437.559 543.373C429.982 533.016 426.296 520.613 426.296 506.423V408.675C426.296 396.926 428.873 386.234 434.13 376.719L434.154 376.677L434.178 376.635C439.577 367.307 446.517 359.835 455.016 354.335L455.036 354.322L455.056 354.309C462.411 349.65 471.338 345.815 481.745 342.739C492.094 339.681 501.831 337.77 510.941 337.049C519.118 336.348 527.74 336 536.804 336C547.456 336 556.807 336.461 564.831 337.402C572.945 338.123 581.914 339.786 591.717 342.354L591.782 342.371L591.847 342.39C603.161 345.691 612.689 349.759 620.307 354.675C628.136 359.728 634.605 366.743 639.756 375.57C645.328 384.952 648 396.057 648 408.675V506.423C648 519.723 644.414 531.43 637.084 541.305C630.058 551.08 620.33 558.376 608.121 563.261C586.817 571.784 563.021 576 536.804 576C524.209 576 512.491 575.184 501.662 573.535ZM633.152 538.432C639.804 529.483 643.131 518.814 643.131 506.423V408.675C643.131 396.743 640.607 386.532 635.56 378.042C630.743 369.782 624.779 363.357 617.667 358.768C610.556 354.179 601.495 350.278 590.484 347.066C580.849 344.542 572.132 342.936 564.332 342.247C556.532 341.329 547.356 340.871 536.804 340.871C527.858 340.871 519.37 341.215 511.341 341.903C502.624 342.591 493.218 344.427 483.125 347.41C473.031 350.393 464.543 354.064 457.661 358.424C449.862 363.472 443.439 370.356 438.392 379.075C433.575 387.794 431.166 397.661 431.166 408.675V506.423C431.166 519.731 434.607 531.089 441.489 540.497C448.371 549.675 457.891 556.33 470.049 560.46C481.29 564.361 492.071 567.114 502.394 568.72C512.947 570.326 524.417 571.129 536.804 571.129C562.497 571.129 585.666 566.999 606.312 558.739C617.782 554.15 626.729 547.381 633.152 538.432ZM581.096 517.938L581.11 517.92C583.338 515.006 584.582 511.277 584.582 506.423V408.331C584.582 403.705 583.655 400.074 582.037 397.231C580.434 394.415 577.995 392.089 574.495 390.291L574.449 390.268L574.404 390.243C567.006 386.243 554.814 383.945 537.148 383.945C519.464 383.945 507.231 386.131 499.801 389.947C496.321 391.735 493.883 394.076 492.276 396.945C490.649 399.847 489.715 403.573 489.715 408.331V506.423C489.715 511.245 490.942 514.957 493.142 517.862C495.343 520.545 498.723 522.709 503.707 524.105L503.732 524.112L503.758 524.119C509.017 525.654 514.018 526.741 518.763 527.395C523.833 527.831 530.067 528.055 537.492 528.055C544.931 528.055 551.049 527.83 555.882 527.395C560.862 526.74 565.976 525.651 571.227 524.119C575.978 522.733 579.105 520.593 581.083 517.956L581.096 517.938ZM518.223 532.237C513.176 531.548 507.9 530.401 502.394 528.795C496.659 527.189 492.301 524.55 489.319 520.879C486.336 516.978 484.845 512.159 484.845 506.423V408.331C484.845 397.546 489.089 389.974 497.577 385.614C506.065 381.255 519.255 379.075 537.148 379.075C555.041 379.075 568.232 381.369 576.72 385.959C585.207 390.318 589.451 397.776 589.451 408.331V506.423C589.451 512.159 587.96 516.978 584.978 520.879C582.225 524.55 578.096 527.189 572.59 528.795C567.085 530.401 561.694 531.548 556.418 532.237C551.371 532.696 545.062 532.925 537.492 532.925C529.922 532.925 523.499 532.696 518.223 532.237Z" fill="#011C72"/>
<rect x="687.987" y="559.776" width="238.098" height="21.122" transform="rotate(-65 687.987 559.776)" stroke="#011C72" stroke-width="6"/>
<path fill-rule="evenodd" clip-rule="evenodd" d="M176 90.8947L77.639 120L176 149.105L176 206L5.26644e-06 145.759L9.77028e-06 94.241L176 34L176 90.8947ZM49.4546 120L168 84.9221L168 45.1909L8.00001 99.9555L8.00001 140.045L168 194.809L168 155.078L49.4546 120Z" fill="#011C72"/>
</svg>
