<svg width="35" height="145" viewBox="0 0 35 145" fill="none" xmlns="http://www.w3.org/2000/svg">
<path d="M32.0045 145C30.1126 145 28.4835 144.948 27.1171 144.843C25.7508 144.843 24.2793 144.687 22.7027 144.374C20.9159 144.06 19.497 143.643 18.4459 143.121C17.5 142.599 16.3438 141.712 14.9775 140.459C13.8213 139.311 12.9279 137.954 12.2973 136.388C11.6667 134.822 11.0886 132.682 10.5631 129.968C10.0375 127.149 9.77477 124.226 9.77477 121.199V85.1836C9.77477 80.9035 9.56456 77.9806 9.14414 76.4147C8.82883 74.8488 8.04054 73.8049 6.77928 73.2829C5.51802 72.761 3.25826 72.5 0 72.5V64.3575C3.25826 64.3575 5.51802 64.0965 6.77928 63.5745C8.04054 63.0526 8.82883 62.0086 9.14414 60.4428C9.56456 58.8769 9.77477 55.9539 9.77477 51.6739V23.8013C9.77477 17.851 10.5631 12.8402 12.1396 8.76891C13.1907 6.15911 15.2928 3.86249 18.4459 1.87905C19.2868 1.3571 20.548 0.939528 22.2297 0.626351C24.0165 0.31318 25.6456 0.104397 27.1171 0H32.0045H35V7.5162H33.4234C30.6907 7.5162 28.3784 8.45573 26.4865 10.3348C24.6997 12.1094 23.8063 14.5626 23.8063 17.6944V46.1933C23.8063 52.6656 22.9129 57.572 21.1261 60.9125C19.3393 64.1487 16.0811 66.5497 11.3514 68.1156V68.7419C16.0811 70.3078 19.3393 72.7088 21.1261 75.9449C22.9129 79.1811 23.8063 84.0875 23.8063 90.6642V127.306C23.8063 130.437 24.6997 132.891 26.4865 134.665C28.3784 136.544 30.6907 137.484 33.4234 137.484H35V145H32.0045Z" fill="#011C72"/>
</svg>
